# xmcd CD database file
#
# Track frame offsets:
#	150
#	23504
#	45587
#	61309
#	75903
#	91997
#	111773
#	128766
#	144651
#	165839
#	186508
#	204807
#	232224
#	261703
#	282060
#
# Disc length: 4028 seconds
#
# Revision: 1
# Processed by: cddbd v1.5PL3 Copyright (c) Steve Scherf et al.
# Submitted via: CDex 1.51
#
DISCID=c60fba0f
DTITLE=伍佰+China Blue - 踏出一步
DYEAR=1900
DGENRE=Blues
TTITLE0=踏出一步
TTITLE1=因為沒有你
TTITLE2=是一種青春
TTITLE3=如果愛能愛很久
TTITLE4=夏夜的夢
TTITLE5=夢的河流
TTITLE6=斷了
TTITLE7=一點點
TTITLE8=翅膀
TTITLE9=你愛我
TTITLE10=美麗新世界
TTITLE11=白鴿
TTITLE12=挪威的森林
TTITLE13=痛哭的人
TTITLE14=浪人情歌
EXTD=
EXTT0=
EXTT1=
EXTT2=
EXTT3=
EXTT4=
EXTT5=
EXTT6=
EXTT7=
EXTT8=
EXTT9=
EXTT10=
EXTT11=
EXTT12=
EXTT13=
EXTT14=
PLAYORDER=
